<svg width="761.3" height="126.7" version="1.1" viewBox="0 0 761.3 126.7">
 <path d="m67.38 76.5c-1.301-0.05261-3.084-0.5282-3.895-0.7083-0.8393-0.1863-3.361-0.8454-5.838-1.322-2.495-0.4795-4.751-1.076-5.34-1.278-0.6604-0.227-1.565-0.591-2.457-0.9281-0.8881-0.3357-2.817-0.9814-4.399-1.598-1.528-0.5956-1.451-0.7782-3.13-1.706-2.29-1.265-5.71-3.543-8.94-7.103-2.867-3.349-3.334-4.234-4.673-6.17-1.264-1.828-1.611-2.233-2.028-2.97-0.4166-0.7355-0.5833-1.108-1.423-2.678-0.5103-0.9548-1.542-3.538-1.542-4.268 0-1.069 0.6185 0.3387 4.32 3.007 1.766 1.273 3.122 1.707 5.049 2.8 1.068 0.6058 1.388 0.8537 2.325 1.267 2.407 1.061 4.322 1.886 5.989 2.58 3.004 1.25 3.671 1.423 4.767 1.75 2.851 0.8508 4.306 1.307 8.018 2.063 2.931 0.5968 5.747 0.8969 6.539 0.9302 0.8148 0.03424 134.1 0.7484 333.8 0.7559 183 0.0067 333.3 0.6097 333.3 0.6097s-0.1757 0.0837 2.307 5.068c3.578 7.184 0 0 3.578 7.184 1.118 2.245 1.587 3.031 1.587 3.031s-4.949 0.3509-332.7 0.2229c-183.1-0.07155-333.8-0.4803-335.2-0.5386z"/>
</svg>
