<?xml version="1.0" encoding="UTF-8" standalone="no"?>
<svg
   xmlns:dc="http://purl.org/dc/elements/1.1/"
   xmlns:cc="http://creativecommons.org/ns#"
   xmlns:rdf="http://www.w3.org/1999/02/22-rdf-syntax-ns#"
   xmlns:svg="http://www.w3.org/2000/svg"
   xmlns="http://www.w3.org/2000/svg"
   xmlns:sodipodi="http://sodipodi.sourceforge.net/DTD/sodipodi-0.dtd"
   xmlns:inkscape="http://www.inkscape.org/namespaces/inkscape"
   inkscape:version="1.0 (4035a4f, 2020-05-01)"
   sodipodi:docname="ligne-menu-1.svg"
   id="svg971"
   version="1.1"
   height="326"
   width="1640">
  <metadata
     id="metadata977">
    <rdf:RDF>
      <cc:Work
         rdf:about="">
        <dc:format>image/svg+xml</dc:format>
        <dc:type
           rdf:resource="http://purl.org/dc/dcmitype/StillImage" />
      </cc:Work>
    </rdf:RDF>
  </metadata>
  <defs
     id="defs975" />
  <sodipodi:namedview
     inkscape:current-layer="svg971"
     inkscape:window-maximized="0"
     inkscape:window-y="0"
     inkscape:window-x="0"
     inkscape:cy="163"
     inkscape:cx="820"
     inkscape:zoom="0.54512195"
     showgrid="false"
     id="namedview973"
     inkscape:window-height="900"
     inkscape:window-width="1440"
     inkscape:pageshadow="2"
     inkscape:pageopacity="0"
     guidetolerance="10"
     gridtolerance="10"
     objecttolerance="10"
     borderopacity="1"
     bordercolor="#666666"
     pagecolor="#ffffff" />
  <path
     id="path923"
     d="M0 0L0 326L1640 326L1640 0L0 0z"
     style="fill:none;stroke:none" />
  <path
     id="path925"
     d="M159 98C157.392 102.151 155.401 104.854 151 106C151.396 113.635 155.218 115.938 160 121L154 121C152.256 124.168 150.565 124.731 147 125C147.934 128.127 148.873 129.066 152 130L152 139L155 137L158 148C150.955 148.145 144.047 149.912 137 149.996C117.299 150.231 97.7057 148.176 78 149.039C69.2392 149.423 60.7826 151.976 52 152C52.6359 154.993 52.8122 156.526 51 159L52 161C49.5332 161.841 47.3007 162.778 45 164L45 168C49.4395 168.764 53.4752 170.602 58 171C56.7772 172.195 56.58 172.316 55 173L56 176C54.6859 176.768 54.7679 176.686 54 178L52 178C51.2321 176.686 51.3142 176.768 50 176C50 179.998 39.6745 179.672 38 185C41.1217 185.026 43.9605 185.276 47 186C45.627 188.067 45.3071 189.522 45 192L50 193C49.4549 194.635 49.6352 194.455 48 195C50.5303 199.676 55.8762 201.306 61.0008 201.829C71.5621 202.908 82.3771 203 93 203C100.704 203 108.354 202.246 116 202.133C118.701 202.093 121.305 203.136 124 202.9C135.033 201.937 145.713 200.077 157 201.17C162.018 201.655 167.301 202.604 171.999 204.465C176.177 206.119 179.382 208.803 184.015 208.981C197.743 209.512 211.288 205.755 225 206L224 208L238 208C234.397 205.539 230.243 206 226 206C235.68 202.848 248.508 204.972 258.259 206.472C266.945 207.809 276.208 207.123 285 208.259C294.333 209.465 303.577 212.629 313 212.981C330.964 213.654 349.081 215.802 367 215.995C380.275 216.139 393.62 214.188 407 215.06C430.704 216.606 454.352 219.548 478 221.866C500.415 224.062 523.459 224 546 224C561.391 224 576.669 223.519 592 223.019C599.022 222.789 605.978 223.557 613 222.866C641.362 220.076 669.513 214.918 698 213.06C711.347 212.19 724.731 213.485 738 213.981C747.673 214.343 757.278 212.832 767 213.005C782.96 213.288 800.025 214.431 816 212.866C824.709 212.012 833.303 209.99 842 209.134C846.547 208.687 851.573 209.971 856 209.009C859.75 208.195 863.168 206.201 867 205.426C876.618 203.482 886.393 203.151 896 201.583C902.386 200.541 908.492 198.484 915 198.06C922.334 197.582 929.645 199 937 199C959.71 199 982.371 199.135 1005 199.981C1021.06 200.583 1037.01 198.42 1053 199.019C1058.8 199.236 1064.41 201.816 1070.02 201.935C1085.28 202.259 1099.72 198.971 1115 199C1121.41 199.012 1127.63 200.757 1134 200.921C1141.21 201.108 1148.54 198.872 1156 199.005C1162.67 199.123 1169.33 200.963 1176 200.963C1185.96 200.963 1195.94 199.642 1206 200.019C1212.05 200.245 1217.93 202 1224 202C1237.34 202 1250.66 200.995 1264 201C1272.06 201.003 1279.97 202.853 1288 202.995C1295.4 203.127 1301.82 201.816 1309 201.079C1318.85 200.068 1330.06 200.577 1340 201.019C1344.17 201.203 1347.86 203.259 1352 203.523C1356.38 203.802 1360.64 202.182 1365 202.019C1376.96 201.571 1389.03 202 1401 202C1437.75 202 1474.51 202.964 1511 199.134C1530.07 197.133 1550.39 200.843 1569 195.588C1573.11 194.428 1585.4 192.325 1586 188C1589.08 187.95 1591.59 188.296 1592 185C1596.41 182.776 1596.87 179.532 1598 175L1594 175L1596 172C1593.46 170.597 1591.48 168.061 1591 172L1589 168L1586 171C1586.27 168.765 1586.02 165.489 1587.68 163.742C1589.47 161.848 1592.65 161.943 1595 161.295C1598.46 160.338 1600.74 158.699 1603 156C1596.13 153.969 1588.14 155 1581 155L1581 153L1590 153C1588.63 149.116 1585.82 149.093 1582 149L1583 145C1572.93 141.589 1563.21 144.266 1553 144.946C1546.26 145.395 1539.72 143.911 1533.04 143.34C1526.89 142.814 1522.84 143.082 1516.83 141.078C1508.76 138.387 1499.47 134.268 1496 126C1503.25 125.347 1508.74 120.364 1515 117L1515 115C1506.7 112.548 1494.66 117.238 1488 111C1492.37 111.811 1496.56 112 1501 112L1501 108C1498.85 108.504 1497.02 109.119 1495 110C1494.17 106.11 1490.52 106.321 1487 105.611C1478.56 103.911 1470.63 102.92 1462 103C1446.46 103.144 1430.48 108.232 1415 109.917C1400.01 111.548 1385.03 114.567 1370 115.75C1367.17 115.973 1364.77 114.515 1362 114.444C1359.04 114.369 1355.9 115.452 1353 116C1354.19 114.813 1354.53 114.416 1355 113L1350 113C1346.21 119.197 1339.07 116.181 1333.17 115.633C1330.34 115.371 1327.78 116.579 1325 116.874C1318.83 117.528 1312.87 116.86 1307 115C1303.47 117.675 1299.27 116.853 1295 117.155C1284.86 117.871 1274.19 117.238 1264 117.025C1260.01 116.941 1255.96 116.154 1252 116.259C1247.35 116.383 1242.7 117.698 1238.04 117.58C1234.54 117.492 1231.5 115.433 1228 115.488C1220.71 115.601 1213.38 117.92 1206 117.996C1189.32 118.168 1172.73 117 1156 117C1158.97 115.286 1161.6 114.467 1165 114C1161.84 112.673 1158.41 113 1155 113C1154.48 116.953 1148.51 117.091 1146 115C1136.22 118.125 1125.31 117 1115 117L1115 115L1122 114C1118.39 112.557 1113.89 113.022 1110 113L1114 117C1104.87 116.274 1096.28 114.242 1087 115.171C1075.16 116.354 1065.09 119.946 1053 119C1056.04 118.1 1058.83 118.008 1062 118C1058.03 113.719 1055.19 116.408 1050.39 117.139C1046.76 117.692 1042.7 116.814 1039 117.028C1036.38 117.179 1033.7 118.306 1031.08 117.694C1015.64 114.081 999.759 119.06 984 119.972C967.002 120.956 949.89 119.313 933 119C924.127 118.836 914.985 120 906 120C894.1 120 881.696 118.153 870 119.778C866.61 120.249 859.628 121.289 859 117C852.572 117.83 846.549 119.247 840 118.961C832.934 118.652 826.019 116.849 819 116.17C812.674 115.558 806.324 116.173 800 115.204C794.891 114.421 789.89 111.89 784.83 111.349C780.979 110.937 776.922 112.126 773 111.961C760.698 111.442 748.308 110.316 736 110.015C724.016 109.721 711.987 109.981 700 110C695.643 110.007 689.751 112.059 686 110C680.753 111.141 675.355 110.002 670 110C652.964 109.993 636.013 107.351 619 107C620.856 105.952 621.944 105.487 624 105C620.485 103.64 618.061 105.111 615 107C612.282 104.746 603.825 107 600 107C586.792 107 574.212 104.006 561 104.91C548.564 105.762 536.41 101.557 524 102.04C510.133 102.58 497.485 108.18 484 109.816C476.279 110.752 468.641 108.897 461 108.17C453.184 107.425 444.87 108.005 437 108C443.503 105.564 450.155 106 457 106C450.65 102.947 444.684 104.298 438 104.286C426.245 104.265 414.717 104.448 403 104.961C378.735 106.023 354.927 101.223 331 98.2863C323.333 97.3451 315.762 98.2431 308 97.2863C304.271 96.8266 301.072 97.3274 298 95C305.329 96.2175 313.541 95.9382 321 96C316.483 92.0715 311.526 93.3044 306 93.8302C301.351 94.2727 296.637 93.6295 292 94.1844C287.197 94.7591 282.91 95.9921 278 96C272.581 96.0087 266.081 97.2732 263 92C251.66 94.3393 241.423 92.2568 230 91.1698C222.117 90.4196 213.916 90.9626 206 91.0008C196.571 91.0462 186.25 91.5584 177 93.4498C170.903 94.6964 165.192 97.1656 159 98z"
     style="fill:#000000; stroke:none;" />
  <path
     id="path927"
     d="M265 94C267.613 94.1744 268.943 94.4181 271 96L273 96L276 93C271.968 91.4903 267.677 89.8867 265 94z"
     style="fill:#0c0c0c; stroke:none;" />
  <path
     id="path929"
     d="M290 95C292.052 95.8742 293.747 95.9528 296 96C293.948 95.1257 292.253 95.0472 290 95z"
     style="fill:#ffffff; stroke:none;" />
  <path
     id="path931"
     d="M548 105C557.523 103.035 567.248 102.226 577 103.17C583.059 103.756 588.905 105.862 595 105.985C599.712 106.079 609.183 107.779 612 104C605.79 102.226 601.053 103.498 595.028 102.861C593.181 102.666 591.731 101.428 589.917 101.111C581.845 99.7 572.159 101 564 101C559.36 101 549.205 99.3477 548 105M626 104C630.726 107.58 640.1 106.449 646 107.155C664.464 109.365 683.471 110.012 702 110C697.373 107.228 692.186 108.308 687.015 107.946C682.24 107.612 677.906 105.236 673 105.354C666.084 105.521 660.101 107.946 653 106.319C647.605 105.083 638.587 99.7508 634 105C630.863 103.424 629.331 102.867 626 104z"
     style="fill:#080808; stroke:none;" />
  <path
     id="path933"
     d="M1477 102C1481.39 105.098 1486.94 105.436 1492 107C1492.99 105.521 1493 105.797 1493 104C1487.87 101.533 1482.58 102 1477 102z"
     style="fill:#0e0e0e; stroke:none;" />
  <path
     id="path935"
     d="M550 104C556.316 106.65 563.439 103.872 570 104.209C582.799 104.867 595.103 107 608 107C603.561 104.019 598.104 106.365 593 105.826C587.956 105.294 583.071 103.66 578 103.17C568.794 102.279 559.133 102.846 550 104M602 103C603.506 103.683 604.315 103.826 606 104C604.494 103.317 603.685 103.174 602 103M1483 104L1484 105L1483 104M409 105C416.502 108.148 428.744 106.348 437 107C429.295 102.903 417.525 105 409 105M645.667 105.333C645.222 105.778 646.278 105.722 646.333 105.667C646.778 105.222 645.722 105.278 645.667 105.333M1487.67 105.333C1487.22 105.778 1488.28 105.722 1488.33 105.667C1488.78 105.222 1487.72 105.278 1487.67 105.333z"
     style="fill:#ffffff; stroke:none;" />
  <path
     id="path937"
     d="M1161 115C1164.79 116.702 1168.26 116.85 1172 115C1172 116.797 1172.01 116.521 1173 118C1184.46 115.177 1198.43 114.246 1210 117L1210 113C1204.39 113 1198.53 111.991 1193 112.274C1188.93 112.482 1185.15 113.945 1181 113.996C1174.36 114.078 1167.37 112.953 1161 115z"
     style="fill:#0f0f0f; stroke:none;" />
  <path
     id="path939"
     d="M804 113L804 116L807 116L807 113L804 113M1122 113C1120.78 114.195 1120.58 114.316 1119 115C1124.2 118.551 1129.31 115.575 1135 115.213C1138.82 114.97 1142.18 115.832 1146 115C1147.63 117.975 1151.23 115.876 1154 115C1144.59 111.049 1132.07 115.397 1122 113z"
     style="fill:#0d0d0d; stroke:none;" />
  <path
     id="path941"
     d="M1233 113L1234 118L1241 118C1239.75 117.315 1239.45 117.251 1238 117C1242.43 115.681 1246.46 116.353 1251 116.19C1258.65 115.915 1264.37 115.426 1272 117C1274.98 114.561 1278.39 115.775 1282 115.836C1290.24 115.974 1298.91 115.075 1307 117C1312.66 113.383 1322.67 115.825 1329 117C1324.66 110.848 1310.74 112.85 1304 113.015C1280.34 113.594 1256.7 113 1233 113M1331 116C1337.37 114.288 1341.29 116.123 1347 117L1346 113C1341.69 113 1332.08 110.937 1331 116z"
     style="fill:#0c0c0c; stroke:none;" />
  <path
     id="path943"
     d="M1108 114L1109 117L1114 116C1111.99 114.775 1110.34 114.355 1108 114z"
     style="fill:#0e0e0e; stroke:none;" />
  <path
     id="path945"
     d="M1119 114C1120.25 114.685 1120.55 114.749 1122 115C1120.75 114.315 1120.45 114.251 1119 114M1161.67 114.333C1161.22 114.778 1162.28 114.722 1162.33 114.667C1162.78 114.222 1161.72 114.278 1161.67 114.333M1115 115L1115 117L1121 117C1118.96 115.584 1117.49 115.255 1115 115M1131 116C1134.96 117.898 1138.74 117.503 1143 117C1139.17 114.704 1135.21 114.76 1131 116M1156 116C1159.43 117.44 1163.3 117 1167 117C1163.45 115.406 1159.76 115.051 1156 116M1170 115L1170 117L1172 117L1172 115L1170 115M1238 116C1241.43 117.44 1245.3 117 1249 117C1245.76 114.912 1241.8 115.969 1238 116M1255 116C1259.47 117.876 1265.16 117.101 1270 118C1266.67 113.883 1259.63 114.631 1255 116M1272 115C1274.45 117.805 1278.47 116.962 1282 117.004C1290.03 117.1 1297.94 117 1306 117C1302.52 115.538 1298.74 116.144 1295 115.914C1287.31 115.439 1279.7 115.558 1272 115M1308.67 115.333C1308.22 115.778 1309.28 115.722 1309.33 115.667C1309.78 115.222 1308.72 115.278 1308.67 115.333M1311 115L1311 117L1327 117C1322.45 115.09 1315.96 115.102 1311 115M1333 115C1336.89 117.07 1340.81 117.227 1345 116C1341.3 114.448 1336.98 115 1333 115M1110 116C1111.51 116.683 1112.31 116.826 1114 117C1112.49 116.317 1111.69 116.174 1110 116M1147 116L1148 117L1147 116M1016 117C1018.05 117.874 1019.75 117.953 1022 118C1019.95 117.126 1018.25 117.047 1016 117M1236 117L1237 118L1236 117M1498 120L1498 122L1500 122L1500 120L1498 120M482 130L481 132L483 132C483 130.147 483.3 130.65 482 130M1496.67 132.333C1496.22 132.778 1497.28 132.722 1497.33 132.667C1497.78 132.222 1496.72 132.278 1496.67 132.333z"
     style="fill:#ffffff; stroke:none;" />
  <path
     id="path947"
     d="M154 139C152.997 141.667 152.379 144.175 152 147L156 147L157 142C156.141 140.647 156.177 140.645 156 139L154 139z"
     style="fill:#0c0c0c; stroke:none;" />
  <path
     id="path949"
     d="M155.333 140.667C155.278 140.722 155.222 141.778 155.667 141.333C155.722 141.278 155.778 140.222 155.333 140.667M1521 145C1524.43 146.44 1528.3 146 1532 146C1528.57 144.56 1524.7 145 1521 145z"
     style="fill:#ffffff; stroke:none;" />
  <path
     id="path951"
     d="M48 168L47 174L39 172C40.0467 176.884 48.2735 175.362 52 174C50.9531 171.534 49.8843 169.904 48 168z"
     style="fill:#0a0a0a; stroke:none;" />
  <path
     id="path953"
     d="M1597 176C1597.67 179.075 1598.41 181.161 1601 183C1600.49 179.656 1599.6 178.153 1597 176z"
     style="fill:#0f0f0f; stroke:none;" />
  <path
     id="path955"
     d="M1036 199C1042.2 201.603 1051.3 200 1058 200C1051.8 197.397 1042.7 199 1036 199M1108 200C1112.48 202.946 1119.7 201.439 1125 202C1120.44 197.345 1113.94 199.951 1108 200z"
     style="fill:#0a0a0a; stroke:none;" />
  <path
     id="path957"
     d="M1138 200C1145.56 205.623 1156.32 202.024 1165 202C1159.58 197.655 1144.86 199.268 1138 200z"
     style="fill:#0b0b0b; stroke:none;" />
  <path
     id="path959"
     d="M1142 199C1147.47 201.295 1155.1 200 1161 200C1155.53 197.705 1147.9 199 1142 199z"
     style="fill:#ffffff; stroke:none;" />
  <path
     id="path961"
     d="M1020 200C1022.49 201.635 1024.08 201.555 1027 201C1024.67 200.015 1022.54 200.019 1020 200z"
     style="fill:#0e0e0e; stroke:none;" />
  <path
     id="path963"
     d="M1305 201C1309.22 202.769 1314.46 202 1319 202C1314.78 200.231 1309.54 201 1305 201z"
     style="fill:#0d0d0d; stroke:none;" />
  <path
     id="path965"
     d="M1344 201C1339.15 202.435 1334.04 202 1329 202C1331.33 203.342 1345.3 204.148 1344 201z"
     style="fill:#0c0c0c; stroke:none;" />
  <path
     id="path967"
     d="M377 216C379.052 216.874 380.747 216.953 383 217L383 215L377 216z"
     style="fill:#0e0e0e; stroke:none;" />
  <path
     id="path969"
     d="M587 223C590.206 225.348 593.126 225.312 597 225C593.818 223.308 590.575 223.074 587 223z"
     style="fill:#0f0f0f; stroke:none;" />
</svg>
