<svg xmlns="http://www.w3.org/2000/svg" viewBox="0 0 533.3 200" height="200" width="533">
<path d="m414.5 118.3c-34.4-3.7-28.8-2.3-51.4-4.5-26.2-2.5-49.1-3.5-59-4.7-9.9-1.2-46.5-2.7-81.3-3.4-150-2.8-200.6-4.2-200-5.7 0.6-1.4 52.1-2.9 203.6-5.7 34.4-0.6 70.7-2.4 80.6-3.3 12.5-1.2 13.7-1.4 58.3-4.7 22.2-1.6 38.7-3.1 46.4-4.1 6.2-0.8 20.7-3.4 20.7-3.4 0 0 9.8 4.6 13.1 6.6 8.1 4.9 27.1 8.4 38.2 10.6 6.4 1.2 19.3 3.4 19.3 3.4 0 0-9.3 1.2-19.6 3.7-8.1 2-19.3 3.8-30.2 7.5-4.7 1.6-19.5 9.8-20.1 9.6-0.6-0.2-4.9-0.5-18.6-2z"/></svg>